<?xml version="1.0" encoding="UTF-8" standalone="no"?><!-- Generator: Gravit.io --><svg xmlns="http://www.w3.org/2000/svg" xmlns:xlink="http://www.w3.org/1999/xlink" style="isolation:isolate" viewBox="0 0 784.966 788" width="784.966pt" height="788pt"><defs><clipPath id="_clipPath_9zn3hDlnJtic6CfWNCo9Mif3z4K7OKEO"><rect width="784.966" height="788"/></clipPath></defs><g clip-path="url(#_clipPath_9zn3hDlnJtic6CfWNCo9Mif3z4K7OKEO)"><g><path d=" M 251.38 374.997 C 168.391 370.377 85.14 361.705 1.629 349 L 1.124 349.454 C 23.279 152.939 190.235 0 392.629 0 L 392.629 0 C 595.43 0 762.649 153.553 784.266 350.636 L 782.629 349 C 699.997 361.832 617.094 370.548 533.922 375.137 C 515.718 314.345 459.312 270 392.629 270 C 325.998 270 269.627 314.277 251.38 374.997 Z " fill-rule="evenodd" fill="rgb(141,141,141)"/><circle vector-effect="non-scaling-stroke" cx="392.62927740391" cy="417.5" r="66" fill="rgb(230,233,237)"/><path d=" M 250.566 457.289 C 167.553 452.437 84.575 443.336 1.629 430 L 0 427.067 C 16.818 629.073 186.311 788 392.629 788 L 392.629 788 C 597.857 788 766.647 630.749 784.966 430.264 C 701.491 443.587 618.054 452.65 534.655 457.435 C 517.22 519.465 460.2 565 392.629 565 C 325.006 565 267.95 519.394 250.566 457.289 Z " fill-rule="evenodd" fill="rgb(230,233,237)"/></g></g></svg>